<mxfile host="app.diagrams.net" modified="2021-01-31T10:47:35.865Z" agent="5.0 (Windows NT 10.0; Win64; x64) AppleWebKit/537.36 (KHTML, like Gecko) Chrome/88.0.4324.104 Safari/537.36" etag="4X0gfTvKyMyQJtLaPRdG" version="14.2.7" type="github" pages="2">
  <diagram id="yLdSVQvCpZOFVTKlzMPO" name="DijagramSlijedaMain()">
    <mxGraphModel dx="670" dy="579" grid="1" gridSize="10" guides="1" tooltips="1" connect="1" arrows="1" fold="1" page="1" pageScale="1" pageWidth="827" pageHeight="1169" math="0" shadow="0">
      <root>
        <mxCell id="0" />
        <mxCell id="1" parent="0" />
        <mxCell id="Ufi1cpwNFLROobDF609C-1" value="main()" style="shape=umlLifeline;perimeter=lifelinePerimeter;whiteSpace=wrap;html=1;container=1;collapsible=0;recursiveResize=0;outlineConnect=0;" vertex="1" parent="1">
          <mxGeometry x="10" y="30" width="100" height="300" as="geometry" />
        </mxCell>
        <mxCell id="Ufi1cpwNFLROobDF609C-2" value="p : Prikaz" style="shape=umlLifeline;perimeter=lifelinePerimeter;whiteSpace=wrap;html=1;container=1;collapsible=0;recursiveResize=0;outlineConnect=0;" vertex="1" parent="1">
          <mxGeometry x="160" y="30" width="100" height="300" as="geometry" />
        </mxCell>
        <mxCell id="Ufi1cpwNFLROobDF609C-3" value="" style="html=1;points=[];perimeter=orthogonalPerimeter;" vertex="1" parent="Ufi1cpwNFLROobDF609C-2">
          <mxGeometry x="45" y="70" width="10" height="30" as="geometry" />
        </mxCell>
        <mxCell id="Ufi1cpwNFLROobDF609C-4" value="b : Bodovanje" style="shape=umlLifeline;perimeter=lifelinePerimeter;whiteSpace=wrap;html=1;container=1;collapsible=0;recursiveResize=0;outlineConnect=0;" vertex="1" parent="1">
          <mxGeometry x="390" y="30" width="100" height="300" as="geometry" />
        </mxCell>
        <mxCell id="Ufi1cpwNFLROobDF609C-5" value="" style="html=1;points=[];perimeter=orthogonalPerimeter;" vertex="1" parent="Ufi1cpwNFLROobDF609C-4">
          <mxGeometry x="45" y="135" width="10" height="30" as="geometry" />
        </mxCell>
        <mxCell id="Ufi1cpwNFLROobDF609C-6" value="i : Igraci" style="shape=umlLifeline;perimeter=lifelinePerimeter;whiteSpace=wrap;html=1;container=1;collapsible=0;recursiveResize=0;outlineConnect=0;" vertex="1" parent="1">
          <mxGeometry x="270" y="30" width="100" height="300" as="geometry" />
        </mxCell>
        <mxCell id="Ufi1cpwNFLROobDF609C-7" value="" style="html=1;points=[];perimeter=orthogonalPerimeter;" vertex="1" parent="Ufi1cpwNFLROobDF609C-6">
          <mxGeometry x="45" y="210" width="10" height="30" as="geometry" />
        </mxCell>
        <mxCell id="Ufi1cpwNFLROobDF609C-8" value="1:p= Prikaz()" style="html=1;verticalAlign=bottom;startArrow=oval;endArrow=block;startSize=8;" edge="1" parent="1" source="Ufi1cpwNFLROobDF609C-1">
          <mxGeometry relative="1" as="geometry">
            <mxPoint x="89.5" y="100" as="sourcePoint" />
            <mxPoint x="210" y="100" as="targetPoint" />
            <Array as="points">
              <mxPoint x="200" y="100" />
            </Array>
          </mxGeometry>
        </mxCell>
        <mxCell id="Ufi1cpwNFLROobDF609C-9" value="2: b= Bodovanje())" style="html=1;verticalAlign=bottom;startArrow=oval;endArrow=block;startSize=8;" edge="1" parent="1" source="Ufi1cpwNFLROobDF609C-1" target="Ufi1cpwNFLROobDF609C-4">
          <mxGeometry relative="1" as="geometry">
            <mxPoint x="89.5" y="170" as="sourcePoint" />
            <mxPoint x="210" y="170" as="targetPoint" />
          </mxGeometry>
        </mxCell>
        <mxCell id="Ufi1cpwNFLROobDF609C-10" value="3: i=Igraci()" style="html=1;verticalAlign=bottom;startArrow=oval;endArrow=block;startSize=8;" edge="1" parent="1" source="Ufi1cpwNFLROobDF609C-1" target="Ufi1cpwNFLROobDF609C-6">
          <mxGeometry relative="1" as="geometry">
            <mxPoint x="70" y="240" as="sourcePoint" />
            <Array as="points">
              <mxPoint x="190" y="240" />
            </Array>
          </mxGeometry>
        </mxCell>
      </root>
    </mxGraphModel>
  </diagram>
  <diagram id="eAfnSRtS8TuSt6Vvu_-5" name="DijagramSlijedaIgranjaConnect4">
    <mxGraphModel dx="2130" dy="975" grid="1" gridSize="10" guides="1" tooltips="1" connect="1" arrows="1" fold="1" page="1" pageScale="1" pageWidth="827" pageHeight="1169" math="0" shadow="0">
      <root>
        <mxCell id="NcvQPkGE-w7vkTmzHe0i-0" />
        <mxCell id="NcvQPkGE-w7vkTmzHe0i-1" parent="NcvQPkGE-w7vkTmzHe0i-0" />
        <mxCell id="NcvQPkGE-w7vkTmzHe0i-2" value="main" style="shape=umlLifeline;perimeter=lifelinePerimeter;whiteSpace=wrap;html=1;container=1;collapsible=0;recursiveResize=0;outlineConnect=0;" vertex="1" parent="NcvQPkGE-w7vkTmzHe0i-1">
          <mxGeometry x="40" y="20" width="100" height="570" as="geometry" />
        </mxCell>
        <mxCell id="NcvQPkGE-w7vkTmzHe0i-3" value="Igra" style="shape=umlLifeline;perimeter=lifelinePerimeter;whiteSpace=wrap;html=1;container=1;collapsible=0;recursiveResize=0;outlineConnect=0;" vertex="1" parent="NcvQPkGE-w7vkTmzHe0i-1">
          <mxGeometry x="230" y="20" width="100" height="1030" as="geometry" />
        </mxCell>
        <mxCell id="NcvQPkGE-w7vkTmzHe0i-5" value="" style="html=1;points=[];perimeter=orthogonalPerimeter;" vertex="1" parent="NcvQPkGE-w7vkTmzHe0i-3">
          <mxGeometry x="45" y="80" width="10" height="930" as="geometry" />
        </mxCell>
        <mxCell id="NcvQPkGE-w7vkTmzHe0i-4" value="p : Prikaz" style="shape=umlLifeline;perimeter=lifelinePerimeter;whiteSpace=wrap;html=1;container=1;collapsible=0;recursiveResize=0;outlineConnect=0;" vertex="1" parent="NcvQPkGE-w7vkTmzHe0i-1">
          <mxGeometry x="390" y="20" width="100" height="1020" as="geometry" />
        </mxCell>
        <mxCell id="NcvQPkGE-w7vkTmzHe0i-14" value="" style="html=1;points=[];perimeter=orthogonalPerimeter;" vertex="1" parent="NcvQPkGE-w7vkTmzHe0i-4">
          <mxGeometry x="45" y="160" width="10" height="40" as="geometry" />
        </mxCell>
        <mxCell id="NcvQPkGE-w7vkTmzHe0i-19" value="self call" style="edgeStyle=orthogonalEdgeStyle;html=1;align=left;spacingLeft=2;endArrow=block;rounded=0;" edge="1" target="NcvQPkGE-w7vkTmzHe0i-14" parent="NcvQPkGE-w7vkTmzHe0i-4" source="NcvQPkGE-w7vkTmzHe0i-4">
          <mxGeometry relative="1" as="geometry">
            <mxPoint x="105" y="160" as="sourcePoint" />
            <Array as="points">
              <mxPoint x="130" y="160" />
              <mxPoint x="130" y="190" />
            </Array>
            <mxPoint x="150" y="250" as="targetPoint" />
          </mxGeometry>
        </mxCell>
        <mxCell id="NcvQPkGE-w7vkTmzHe0i-9" value="" style="html=1;points=[];perimeter=orthogonalPerimeter;" vertex="1" parent="NcvQPkGE-w7vkTmzHe0i-4">
          <mxGeometry x="45" y="100" width="10" height="40" as="geometry" />
        </mxCell>
        <mxCell id="NcvQPkGE-w7vkTmzHe0i-6" value="1: pocetak" style="html=1;verticalAlign=bottom;startArrow=oval;endArrow=block;startSize=8;" edge="1" target="NcvQPkGE-w7vkTmzHe0i-5" parent="NcvQPkGE-w7vkTmzHe0i-1">
          <mxGeometry relative="1" as="geometry">
            <mxPoint x="89.5" y="120" as="sourcePoint" />
            <mxPoint x="269.5" y="120" as="targetPoint" />
          </mxGeometry>
        </mxCell>
        <mxCell id="NcvQPkGE-w7vkTmzHe0i-10" value="2: pokaziPocetakIgre()" style="html=1;verticalAlign=bottom;startArrow=oval;endArrow=block;startSize=8;" edge="1" target="NcvQPkGE-w7vkTmzHe0i-9" parent="NcvQPkGE-w7vkTmzHe0i-1" source="NcvQPkGE-w7vkTmzHe0i-5">
          <mxGeometry relative="1" as="geometry">
            <mxPoint x="390" y="140" as="sourcePoint" />
            <Array as="points">
              <mxPoint x="390" y="120" />
            </Array>
          </mxGeometry>
        </mxCell>
        <mxCell id="NcvQPkGE-w7vkTmzHe0i-15" value="3: unesiIgraca()" style="html=1;verticalAlign=bottom;startArrow=oval;endArrow=block;startSize=8;" edge="1" target="NcvQPkGE-w7vkTmzHe0i-14" parent="NcvQPkGE-w7vkTmzHe0i-1" source="NcvQPkGE-w7vkTmzHe0i-5">
          <mxGeometry relative="1" as="geometry">
            <mxPoint x="414" y="180" as="sourcePoint" />
            <Array as="points">
              <mxPoint x="430" y="190" />
            </Array>
          </mxGeometry>
        </mxCell>
        <mxCell id="NcvQPkGE-w7vkTmzHe0i-20" value="loop" style="shape=umlFrame;whiteSpace=wrap;html=1;" vertex="1" parent="NcvQPkGE-w7vkTmzHe0i-1">
          <mxGeometry x="230" y="170" width="340" height="60" as="geometry" />
        </mxCell>
        <mxCell id="NcvQPkGE-w7vkTmzHe0i-22" value="4: prikaziPlocu()&amp;nbsp;" style="html=1;verticalAlign=bottom;startArrow=oval;endArrow=block;startSize=8;" edge="1" target="NcvQPkGE-w7vkTmzHe0i-21" parent="NcvQPkGE-w7vkTmzHe0i-1" source="NcvQPkGE-w7vkTmzHe0i-3">
          <mxGeometry x="0.7235" relative="1" as="geometry">
            <mxPoint x="380" y="320" as="sourcePoint" />
            <Array as="points">
              <mxPoint x="440" y="280" />
            </Array>
            <mxPoint x="1" as="offset" />
          </mxGeometry>
        </mxCell>
        <mxCell id="NcvQPkGE-w7vkTmzHe0i-23" value="b: Bodovanje()" style="shape=umlLifeline;perimeter=lifelinePerimeter;whiteSpace=wrap;html=1;container=1;collapsible=0;recursiveResize=0;outlineConnect=0;" vertex="1" parent="NcvQPkGE-w7vkTmzHe0i-1">
          <mxGeometry x="560" y="20" width="100" height="1020" as="geometry" />
        </mxCell>
        <mxCell id="NcvQPkGE-w7vkTmzHe0i-21" value="" style="html=1;points=[];perimeter=orthogonalPerimeter;" vertex="1" parent="NcvQPkGE-w7vkTmzHe0i-23">
          <mxGeometry x="45" y="250" width="10" height="40" as="geometry" />
        </mxCell>
        <mxCell id="NcvQPkGE-w7vkTmzHe0i-26" value="self call" style="edgeStyle=orthogonalEdgeStyle;html=1;align=left;spacingLeft=2;endArrow=block;rounded=0;entryX=1.14;entryY=0.74;entryDx=0;entryDy=0;entryPerimeter=0;" edge="1" target="NcvQPkGE-w7vkTmzHe0i-21" parent="NcvQPkGE-w7vkTmzHe0i-23" source="NcvQPkGE-w7vkTmzHe0i-21">
          <mxGeometry x="0.023" y="5" relative="1" as="geometry">
            <mxPoint x="60" y="260" as="sourcePoint" />
            <Array as="points">
              <mxPoint x="85" y="260" />
              <mxPoint x="85" y="280" />
            </Array>
            <mxPoint x="65" y="280" as="targetPoint" />
            <mxPoint as="offset" />
          </mxGeometry>
        </mxCell>
        <mxCell id="NcvQPkGE-w7vkTmzHe0i-41" value="" style="html=1;points=[];perimeter=orthogonalPerimeter;" vertex="1" parent="NcvQPkGE-w7vkTmzHe0i-23">
          <mxGeometry x="45" y="590" width="10" height="40" as="geometry" />
        </mxCell>
        <mxCell id="NcvQPkGE-w7vkTmzHe0i-27" value="i : Igraci" style="shape=umlLifeline;perimeter=lifelinePerimeter;whiteSpace=wrap;html=1;container=1;collapsible=0;recursiveResize=0;outlineConnect=0;" vertex="1" parent="NcvQPkGE-w7vkTmzHe0i-1">
          <mxGeometry x="710" y="20" width="100" height="1020" as="geometry" />
        </mxCell>
        <mxCell id="NcvQPkGE-w7vkTmzHe0i-31" value="" style="html=1;points=[];perimeter=orthogonalPerimeter;" vertex="1" parent="NcvQPkGE-w7vkTmzHe0i-27">
          <mxGeometry x="45" y="340" width="10" height="20" as="geometry" />
        </mxCell>
        <mxCell id="NcvQPkGE-w7vkTmzHe0i-33" value="" style="html=1;points=[];perimeter=orthogonalPerimeter;" vertex="1" parent="NcvQPkGE-w7vkTmzHe0i-27">
          <mxGeometry x="45" y="370" width="10" height="20" as="geometry" />
        </mxCell>
        <mxCell id="NcvQPkGE-w7vkTmzHe0i-32" value="trenutniIgrac=i.ime2&lt;br&gt;marker=igraci[1]" style="html=1;verticalAlign=bottom;startArrow=oval;endArrow=block;startSize=8;" edge="1" target="NcvQPkGE-w7vkTmzHe0i-31" parent="NcvQPkGE-w7vkTmzHe0i-1" source="NcvQPkGE-w7vkTmzHe0i-5">
          <mxGeometry x="0.766" relative="1" as="geometry">
            <mxPoint x="300" y="380" as="sourcePoint" />
            <mxPoint as="offset" />
          </mxGeometry>
        </mxCell>
        <mxCell id="NcvQPkGE-w7vkTmzHe0i-34" value="" style="html=1;verticalAlign=bottom;startArrow=oval;endArrow=block;startSize=8;" edge="1" target="NcvQPkGE-w7vkTmzHe0i-33" parent="NcvQPkGE-w7vkTmzHe0i-1">
          <mxGeometry relative="1" as="geometry">
            <mxPoint x="286" y="410" as="sourcePoint" />
            <Array as="points">
              <mxPoint x="570" y="410" />
            </Array>
          </mxGeometry>
        </mxCell>
        <mxCell id="NcvQPkGE-w7vkTmzHe0i-35" value="&lt;span style=&quot;color: rgb(0, 0, 0); font-family: helvetica; font-size: 11px; font-style: normal; font-weight: 400; letter-spacing: normal; text-align: center; text-indent: 0px; text-transform: none; word-spacing: 0px; background-color: rgb(255, 255, 255); display: inline; float: none;&quot;&gt;trenutniIgrac=i.ime1&lt;/span&gt;&lt;br style=&quot;color: rgb(0, 0, 0); font-family: helvetica; font-size: 11px; font-style: normal; font-weight: 400; letter-spacing: normal; text-align: center; text-indent: 0px; text-transform: none; word-spacing: 0px;&quot;&gt;&lt;span style=&quot;color: rgb(0, 0, 0); font-family: helvetica; font-size: 11px; font-style: normal; font-weight: 400; letter-spacing: normal; text-align: center; text-indent: 0px; text-transform: none; word-spacing: 0px; background-color: rgb(255, 255, 255); display: inline; float: none;&quot;&gt;marker=igraci[0]&lt;/span&gt;" style="text;whiteSpace=wrap;html=1;" vertex="1" parent="NcvQPkGE-w7vkTmzHe0i-1">
          <mxGeometry x="650" y="370" width="120" height="40" as="geometry" />
        </mxCell>
        <mxCell id="NcvQPkGE-w7vkTmzHe0i-36" value="" style="html=1;points=[];perimeter=orthogonalPerimeter;" vertex="1" parent="NcvQPkGE-w7vkTmzHe0i-1">
          <mxGeometry x="605" y="440" width="10" height="20" as="geometry" />
        </mxCell>
        <mxCell id="NcvQPkGE-w7vkTmzHe0i-37" value="5: odabirPolja()" style="html=1;verticalAlign=bottom;startArrow=oval;endArrow=block;startSize=8;" edge="1" target="NcvQPkGE-w7vkTmzHe0i-36" parent="NcvQPkGE-w7vkTmzHe0i-1" source="NcvQPkGE-w7vkTmzHe0i-5">
          <mxGeometry relative="1" as="geometry">
            <mxPoint x="300" y="440" as="sourcePoint" />
          </mxGeometry>
        </mxCell>
        <mxCell id="NcvQPkGE-w7vkTmzHe0i-38" value="self call" style="edgeStyle=orthogonalEdgeStyle;html=1;align=left;spacingLeft=2;endArrow=block;rounded=0;entryX=1.14;entryY=0.74;entryDx=0;entryDy=0;entryPerimeter=0;" edge="1" parent="NcvQPkGE-w7vkTmzHe0i-1">
          <mxGeometry x="0.0166" relative="1" as="geometry">
            <mxPoint x="615" y="440" as="sourcePoint" />
            <Array as="points">
              <mxPoint x="660" y="440" />
              <mxPoint x="660" y="460" />
            </Array>
            <mxPoint x="616.4000000000001" y="459.6" as="targetPoint" />
            <mxPoint as="offset" />
          </mxGeometry>
        </mxCell>
        <mxCell id="NcvQPkGE-w7vkTmzHe0i-39" value="" style="html=1;points=[];perimeter=orthogonalPerimeter;" vertex="1" parent="NcvQPkGE-w7vkTmzHe0i-1">
          <mxGeometry x="605" y="510" width="10" height="30" as="geometry" />
        </mxCell>
        <mxCell id="NcvQPkGE-w7vkTmzHe0i-40" value="6: igraj" style="html=1;verticalAlign=bottom;startArrow=oval;endArrow=block;startSize=8;" edge="1" target="NcvQPkGE-w7vkTmzHe0i-39" parent="NcvQPkGE-w7vkTmzHe0i-1" source="NcvQPkGE-w7vkTmzHe0i-3">
          <mxGeometry x="-0.0138" y="-20" relative="1" as="geometry">
            <mxPoint x="540" y="480" as="sourcePoint" />
            <Array as="points">
              <mxPoint x="480" y="510" />
            </Array>
            <mxPoint as="offset" />
          </mxGeometry>
        </mxCell>
        <mxCell id="NcvQPkGE-w7vkTmzHe0i-42" value="7: napraviObrnutuPlocu" style="html=1;verticalAlign=bottom;startArrow=oval;endArrow=block;startSize=8;" edge="1" target="NcvQPkGE-w7vkTmzHe0i-41" parent="NcvQPkGE-w7vkTmzHe0i-1" source="NcvQPkGE-w7vkTmzHe0i-5">
          <mxGeometry relative="1" as="geometry">
            <mxPoint x="290" y="620" as="sourcePoint" />
          </mxGeometry>
        </mxCell>
        <mxCell id="NcvQPkGE-w7vkTmzHe0i-43" value="loop:&amp;nbsp;" style="shape=umlFrame;whiteSpace=wrap;html=1;" vertex="1" parent="NcvQPkGE-w7vkTmzHe0i-1">
          <mxGeometry x="260" y="680" width="400" height="210" as="geometry" />
        </mxCell>
        <mxCell id="NcvQPkGE-w7vkTmzHe0i-44" value="" style="html=1;points=[];perimeter=orthogonalPerimeter;" vertex="1" parent="NcvQPkGE-w7vkTmzHe0i-1">
          <mxGeometry x="605" y="690" width="10" height="30" as="geometry" />
        </mxCell>
        <mxCell id="NcvQPkGE-w7vkTmzHe0i-45" value="if provjeriLiniju(marker) or&lt;br&gt;&amp;nbsp;provjeriLiniju(marker,obrnutaPloca) &lt;br&gt;or provjeriDiagonalu(marker:)" style="html=1;verticalAlign=bottom;startArrow=oval;endArrow=block;startSize=8;exitX=0.141;exitY=0.157;exitDx=0;exitDy=0;exitPerimeter=0;" edge="1" target="NcvQPkGE-w7vkTmzHe0i-44" parent="NcvQPkGE-w7vkTmzHe0i-1" source="NcvQPkGE-w7vkTmzHe0i-43">
          <mxGeometry x="-0.0742" y="-30" relative="1" as="geometry">
            <mxPoint x="544.2" y="696" as="sourcePoint" />
            <mxPoint as="offset" />
          </mxGeometry>
        </mxCell>
        <mxCell id="NcvQPkGE-w7vkTmzHe0i-48" value="" style="html=1;points=[];perimeter=orthogonalPerimeter;" vertex="1" parent="NcvQPkGE-w7vkTmzHe0i-1">
          <mxGeometry x="605" y="750" width="10" height="30" as="geometry" />
        </mxCell>
        <mxCell id="NcvQPkGE-w7vkTmzHe0i-49" value="prikaziPlocu()" style="html=1;verticalAlign=bottom;startArrow=oval;endArrow=block;startSize=8;" edge="1" parent="NcvQPkGE-w7vkTmzHe0i-1">
          <mxGeometry relative="1" as="geometry">
            <mxPoint x="270" y="760" as="sourcePoint" />
            <mxPoint x="610" y="770" as="targetPoint" />
            <Array as="points">
              <mxPoint x="440" y="770" />
            </Array>
          </mxGeometry>
        </mxCell>
      </root>
    </mxGraphModel>
  </diagram>
</mxfile>
